<?xml version="1.0" encoding="UTF-8"?>
<svg xmlns="http://www.w3.org/2000/svg" viewBox="0 0 32 32">
  <defs>
    <linearGradient id="aurora" x1="0%" y1="0%" x2="100%" y2="100%">
      <stop offset="0%" stop-color="#5eead4"/>
      <stop offset="55%" stop-color="#67e8f9"/>
      <stop offset="100%" stop-color="#a78bfa"/>
    </linearGradient>
    <radialGradient id="glow" cx="50%" cy="45%" r="55%">
      <stop offset="0%" stop-color="#5eead4" stop-opacity="0.45"/>
      <stop offset="100%" stop-color="#06080f" stop-opacity="0"/>
    </radialGradient>
  </defs>
  <rect width="32" height="32" rx="7" fill="#06080f"/>
  <rect width="32" height="32" rx="7" fill="url(#glow)"/>
  <circle cx="7" cy="6" r="0.9" fill="#fff" opacity="0.75"/>
  <circle cx="25" cy="8" r="0.6" fill="#fff" opacity="0.55"/>
  <circle cx="23" cy="24" r="0.8" fill="#fff" opacity="0.65"/>
  <circle cx="11" cy="22" r="0.5" fill="#fff" opacity="0.4"/>
  <circle cx="16" cy="16" r="8.5" fill="none" stroke="url(#aurora)" stroke-width="1.4" opacity="0.85"/>
  <path fill="url(#aurora)" d="M16 9.2c-2.8 0-5 2-5.6 4.6-.1.5.3 1 .8 1h9.6c.5 0 .9-.5.8-1-.6-2.6-2.8-4.6-5.6-4.6zm0 11.2c2.2 0 4.1-1.2 5.2-3 .3-.5-.1-1.1-.7-1.1h-9c-.6 0-1 .6-.7 1.1 1.1 1.8 3 3 5.2 3z"/>
</svg>
